# xmcd
#
# Track frame offsets:
# 150
# 22430
# 48633
# 69355
# 95128
# 112973
# 138188
# 162163
# 186645
#
# Disc length: 2855 seconds
#
#
# Revision: 1
# Processed by: cddbd v1.4PL0 Copyright (c) Steve Scherf et al.
# Submitted via: FreeRIP 2.35 
#
DISCID=840b2509
DTITLE=Hilton Ruiz - Hands on percussion
DYEAR=1995
DGENRE=Jazz
TTITLE0=Ornithology
TTITLE1=Blues for COS
TTITLE2=Mambo for vibes
TTITLE3=Round Midnight
TTITLE4=Cotton Tail
TTITLE5=Jack's tune
TTITLE6=Like Sonny
TTITLE7=Manenguitos way
TTITLE8=Salute to Eddie
EXTD=YEAR: 1995
EXTT0=
EXTT1=
EXTT2=
EXTT3=
EXTT4=
EXTT5=
EXTT6=
EXTT7=
EXTT8=
PLAYORDER=
